<svg width="588" height="231" viewBox="0 0 588 231" fill="none" xmlns="http://www.w3.org/2000/svg">
<path d="M111.735 56.4158C116.448 56.4158 120.235 57.7712 123.096 60.4818C125.957 63.1925 127.387 66.835 127.387 71.4092V171.789C127.387 191.272 122.002 206.011 111.23 216.007C100.459 226.002 84.5545 231 63.5167 231C45.1718 231 29.8562 227.527 17.5702 220.581C11.343 216.854 8.22938 212.364 8.22938 207.112C8.22938 203.385 9.0709 200.42 10.7539 198.218C12.6052 196.015 14.9615 194.914 17.8226 194.914C19.3373 194.914 21.1887 195.253 23.3766 195.931C25.5645 196.778 27.8366 197.71 30.1928 198.726C36.2517 201.267 41.6374 203.216 46.3499 204.571C51.2307 205.926 56.7846 206.604 63.0118 206.604C85.0594 206.604 96.0832 195.761 96.0832 174.076V157.812C92.3806 164.758 86.9949 170.179 79.9262 174.076C72.8575 177.803 64.779 179.667 55.6907 179.667C44.9193 179.667 35.3261 177.125 26.911 172.043C18.6641 166.791 12.1845 159.506 7.47202 150.188C2.75955 140.87 0.40332 130.112 0.40332 117.914C0.40332 105.716 2.6754 94.9582 7.21957 85.6403C11.932 76.1529 18.4958 68.868 26.911 63.7855C35.3261 58.5335 44.9193 55.9076 55.6907 55.9076C64.779 55.9076 72.8575 57.8559 79.9262 61.7525C86.9949 65.4797 92.3806 70.8163 96.0832 77.7624V71.1551C96.0832 66.7503 97.5138 63.1925 100.375 60.4818C103.236 57.7712 107.023 56.4158 111.735 56.4158ZM64.0216 155.017C74.1198 155.017 81.9458 151.713 87.4998 145.106C93.2221 138.498 96.0832 129.435 96.0832 117.914C96.0832 106.224 93.2221 97.0759 87.4998 90.4687C81.9458 83.8614 74.1198 80.5578 64.0216 80.5578C54.0918 80.5578 46.2657 83.8614 40.5434 90.4687C34.8212 97.0759 31.96 106.224 31.96 117.914C31.96 129.435 34.8212 138.498 40.5434 145.106C46.2657 151.713 54.0918 155.017 64.0216 155.017Z" fill="#3682B9"/>
<path d="M173.2 184.749C168.656 184.749 164.869 183.479 161.84 180.937C158.978 178.227 157.548 174.415 157.548 169.502V71.4092C157.548 66.4961 158.978 62.769 161.84 60.2277C164.869 57.6865 168.656 56.4158 173.2 56.4158C177.744 56.4158 181.531 57.6865 184.56 60.2277C187.59 62.769 189.105 66.4961 189.105 71.4092V169.502C189.105 174.415 187.59 178.227 184.56 180.937C181.531 183.479 177.744 184.749 173.2 184.749ZM173.2 33.7987C167.478 33.7987 162.933 32.2739 159.567 29.2244C156.201 26.0055 154.518 21.8548 154.518 16.7723C154.518 11.6898 156.201 7.62376 159.567 4.57426C162.933 1.52475 167.478 0 173.2 0C178.754 0 183.214 1.52475 186.58 4.57426C190.114 7.62376 191.882 11.6898 191.882 16.7723C191.882 21.8548 190.198 26.0055 186.832 29.2244C183.466 32.2739 178.922 33.7987 173.2 33.7987Z" fill="#3682B9"/>
<path d="M305.21 65.5644C306.556 62.5148 308.323 60.2277 310.511 58.703C312.867 57.1782 315.392 56.4158 318.085 56.4158C321.956 56.4158 325.406 57.7712 328.435 60.4818C331.633 63.0231 333.232 66.242 333.232 70.1386C333.232 72.1716 332.727 74.2046 331.717 76.2376L285.013 174.584C283.499 177.803 281.311 180.26 278.449 181.954C275.757 183.648 272.727 184.495 269.361 184.495C266.163 184.495 263.05 183.648 260.02 181.954C257.159 180.26 254.971 177.803 253.457 174.584L206.5 76.2376C205.659 74.5435 205.238 72.5952 205.238 70.3927C205.238 66.4962 206.837 63.1925 210.035 60.4818C213.401 57.7712 217.187 56.4158 221.395 56.4158C227.454 56.4158 231.914 59.3806 234.775 65.3102L270.118 143.835L305.21 65.5644Z" fill="#3682B9"/>
<path d="M445.209 149.172C448.07 149.172 450.342 150.273 452.025 152.475C453.876 154.678 454.802 157.642 454.802 161.37C454.802 166.622 451.688 171.026 445.461 174.584C439.739 177.803 433.259 180.429 426.022 182.462C418.785 184.326 411.885 185.257 405.321 185.257C385.461 185.257 369.725 179.497 358.112 167.977C346.499 156.457 340.693 140.701 340.693 120.71C340.693 108.003 343.218 96.7371 348.267 86.9109C353.316 77.0847 360.384 69.461 369.473 64.0396C378.729 58.6183 389.164 55.9076 400.777 55.9076C411.885 55.9076 421.562 58.3641 429.809 63.2772C438.056 68.1903 444.451 75.1364 448.996 84.1155C453.54 93.0946 455.812 103.683 455.812 115.881C455.812 123.166 452.614 126.809 446.219 126.809H371.745C372.755 138.498 376.037 147.139 381.591 152.729C387.145 158.151 395.223 160.861 405.826 160.861C411.212 160.861 415.924 160.184 419.963 158.828C424.171 157.473 428.883 155.609 434.101 153.238C439.15 150.527 442.853 149.172 445.209 149.172ZM401.534 78.2706C392.951 78.2706 386.051 80.9813 380.833 86.4026C375.784 91.824 372.755 99.6172 371.745 109.782H428.799C428.463 99.4477 425.938 91.6546 421.226 86.4026C416.513 80.9813 409.949 78.2706 401.534 78.2706Z" fill="#3682B9"/>
<path d="M576.8 149.172C579.661 149.172 581.933 150.273 583.617 152.475C585.468 154.678 586.394 157.642 586.394 161.37C586.394 166.622 583.28 171.026 577.053 174.584C571.33 177.803 564.851 180.429 557.614 182.462C550.377 184.326 543.476 185.257 536.913 185.257C517.053 185.257 501.317 179.497 489.704 167.977C478.091 156.457 472.284 140.701 472.284 120.71C472.284 108.003 474.809 96.7371 479.858 86.9109C484.907 77.0847 491.976 69.461 501.064 64.0396C510.321 58.6183 520.756 55.9076 532.368 55.9076C543.476 55.9076 553.154 58.3641 561.401 63.2772C569.647 68.1903 576.043 75.1364 580.587 84.1155C585.131 93.0946 587.403 103.683 587.403 115.881C587.403 123.166 584.206 126.809 577.81 126.809H503.336C504.346 138.498 507.628 147.139 513.182 152.729C518.736 158.151 526.814 160.861 537.418 160.861C542.803 160.861 547.516 160.184 551.555 158.828C555.762 157.473 560.475 155.609 565.692 153.238C570.741 150.527 574.444 149.172 576.8 149.172ZM533.126 78.2706C524.542 78.2706 517.642 80.9813 512.425 86.4026C507.376 91.824 504.346 99.6172 503.336 109.782H560.391C560.054 99.4477 557.53 91.6546 552.817 86.4026C548.105 80.9813 541.541 78.2706 533.126 78.2706Z" fill="#3682B9"/>
</svg>
